<svg width="290" height="360" viewBox="0 0 290 360" fill="none" xmlns="http://www.w3.org/2000/svg">
<rect width="290" height="360" fill="#EDEDED"/>
<path d="M208.401 236.438C208.401 236.518 208.401 236.518 208.482 236.599L208.401 236.438ZM98.5672 96.5805C98.6484 96.5805 98.6484 96.5805 98.5672 96.5805V96.5805ZM88.7448 137.829C88.6636 137.748 88.6636 137.587 88.5824 137.506C88.5824 137.426 88.5012 137.345 88.5012 137.184C88.6636 137.587 88.8259 137.99 88.9883 138.312C88.8259 138.151 88.8259 137.99 88.7448 137.829Z" fill="#AAAAAA"/>
<path d="M250.045 175.049C250.207 173.921 248.097 162.965 247.61 161.676C246.148 158.292 245.255 154.667 244.444 151.122C243.47 146.852 239.654 143.227 237.949 139.36C237.381 137.99 236.651 136.54 235.92 135.17C235.189 133.801 234.459 132.512 233.728 131.223C231.78 127.758 228.939 124.939 227.072 121.475C226.016 119.461 221.065 113.741 220.902 113.579C220.902 113.579 205.154 100.77 203.611 99.0781C202.637 97.9502 194.438 94.0832 193.058 93.5998C191.597 93.0359 187.295 90.619 186.239 90.4579C185.671 90.3773 178.933 87.1548 176.66 87.1548C174.306 87.0742 171.952 86.752 169.679 86.0269C168.705 85.7046 160.425 84.0128 159.126 84.0128C151.333 83.9323 145.732 84.2545 143.296 84.3351C140.212 84.4156 118.862 87.2353 117.969 87.7993C117.482 88.1215 99.704 91.9886 88.3392 99.4809C86.3097 100.77 63.2553 117.849 51.7281 135.976C51.3222 136.862 43.2045 154.264 43.1233 155.069C42.4739 157.164 38.9832 168.926 38.902 169.732C38.7397 171.746 38.5773 173.679 38.3338 175.693C38.3338 175.774 38.1714 185.2 38.3338 187.939C38.5773 189.147 38.1714 196.398 38.0091 198.734C37.9279 199.782 38.415 203.729 38.4962 204.857C38.6585 205.985 39.1456 211.383 39.3891 212.591C39.4703 213.316 42.1491 221.856 42.4739 223.064C42.555 223.79 48.0751 236.277 48.2375 237.163C48.2375 237.163 52.4587 245.3 53.0269 246.267C54.1634 247.958 55.3811 250.375 56.9235 251.987C57.8976 253.034 63.9859 260.446 64.3918 260.204C64.6353 260.043 64.6353 259.237 64.5542 258.351C64.5542 258.109 64.473 257.868 64.473 257.626C64.473 257.384 64.3918 257.143 64.3918 256.901C64.3918 256.74 64.3106 256.659 64.3106 256.498C64.2294 256.095 64.2294 255.773 64.1483 255.37C64.0671 254.806 63.9859 254.242 63.9859 253.84C63.9859 253.84 63.4177 249.811 63.4177 248.845C63.3365 247.636 63.1741 246.508 63.58 245.3C63.58 245.139 65.6095 229.026 66.4212 226.448C66.2589 225.804 67.6389 222.339 68.9377 221.453C70.3989 220.406 71.0484 220.486 71.4543 222.178C71.6166 222.823 71.9413 223.226 72.266 223.79C73.2402 225.32 75.8378 231.362 76.4061 232.571C78.192 236.116 80.3838 239.419 82.0073 243.205C83.4685 246.831 85.498 250.536 88.7451 253.195C89.8004 254.001 90.0439 253.84 90.4498 252.712C90.9369 251.584 91.7487 245.461 91.9922 243.608C92.2357 241.755 92.1545 239.58 92.5604 237.727C93.3722 233.94 93.8593 230.154 94.2652 226.287C94.8334 220.003 96.0511 213.8 97.1875 207.596C97.9993 203.327 98.8111 198.976 99.7041 194.706C100.353 191.403 100.841 187.939 101.49 184.636C102.058 181.494 105.224 171.262 105.549 170.618C105.711 170.135 106.117 166.59 106.442 165.301C106.848 164.092 107.497 158.614 107.984 154.103C107.984 153.861 107.984 153.7 108.065 153.539C108.065 153.378 108.147 153.216 108.147 153.055C108.228 152.733 108.228 152.411 108.228 152.089C108.228 151.927 108.309 151.686 108.309 151.525C108.309 151.444 108.309 151.283 108.309 151.202C108.309 151.122 108.309 151.041 108.309 151.041C108.309 150.88 108.309 150.719 108.39 150.558C108.471 150.074 108.471 149.672 108.471 149.269C108.471 149.188 108.471 149.188 108.471 149.108C108.471 149.027 108.471 148.947 108.471 148.866C108.471 148.705 108.471 148.624 108.471 148.544C108.471 148.383 108.471 148.221 108.471 148.06C108.471 147.98 108.471 147.899 108.471 147.819C108.471 144.918 108.309 142.018 107.335 138.876C106.036 141.293 104.899 143.388 103.763 145.402C102.464 147.899 101.409 150.558 99.0546 152.411C98.1617 153.136 97.2687 153.458 96.4569 153.458C95.1581 153.458 94.0216 152.652 93.291 151.122C91.7486 147.496 90.6122 143.629 89.5569 139.843C89.5569 139.843 89.4757 139.762 89.4757 139.601C89.4757 139.521 89.3945 139.44 89.3945 139.36C89.3945 139.279 89.3133 139.279 89.3133 139.198C89.2321 139.118 89.2321 138.957 89.151 138.876C89.0698 138.796 89.0698 138.715 88.9886 138.634C88.9074 138.473 88.8263 138.312 88.8263 138.232C88.6639 137.909 88.5015 137.507 88.3392 137.104C88.258 137.023 88.258 136.943 88.258 136.782C88.258 136.701 88.1768 136.701 88.1768 136.62C88.1768 136.62 88.1768 136.62 88.1768 136.54C88.1768 136.459 88.0957 136.298 88.0145 136.218C87.9333 136.056 87.8521 135.815 87.7709 135.654C87.6086 135.251 87.5274 134.848 87.3651 134.445C86.7968 132.512 86.4721 130.417 87.1215 129.048C87.4462 127.114 92.2357 124.939 93.2098 124.294C95.7264 122.522 98.7299 121.636 101.246 119.944C104.088 118.01 107.172 116.399 110.257 114.788C111.231 114.304 112.205 113.982 113.098 113.982C113.829 113.982 114.478 114.143 115.209 114.627C115.29 114.707 115.371 114.707 115.453 114.788C115.534 114.868 115.615 114.868 115.696 114.949C115.777 115.03 115.858 115.03 115.94 115.11C118.7 116.963 126.899 122.441 129.983 124.294C130.146 124.375 130.308 124.455 130.47 124.536C130.552 124.536 130.552 124.617 130.633 124.617C130.714 124.697 130.795 124.697 130.876 124.778C131.039 124.858 131.12 124.858 131.201 124.939C131.201 124.939 131.201 124.939 131.282 124.939C131.526 124.617 143.702 124.375 149.385 124.214C152.794 124.133 156.122 124.455 159.532 123.811C163.753 123.65 167.487 121.636 171.303 120.186C175.849 118.413 180.313 116.641 184.859 114.868C185.59 114.546 186.321 114.466 187.051 114.466C188.106 114.466 189.081 114.707 190.055 115.11C192.977 116.319 196.062 117.044 199.065 118.172C201.988 119.219 205.073 119.702 208.238 119.702C208.401 119.702 208.644 119.702 208.807 119.702H208.888C210.024 119.702 210.917 120.186 211.567 120.911C211.648 120.991 211.729 121.152 211.81 121.233C211.891 121.313 211.973 121.394 211.973 121.475C212.054 121.555 212.135 121.716 212.216 121.797C212.297 121.958 212.379 122.2 212.46 122.361C212.541 122.441 212.541 122.602 212.622 122.683V122.764C212.703 122.925 212.703 123.005 212.703 123.166C212.784 123.328 212.784 123.569 212.866 123.73C213.353 126.308 211.648 127.678 210.593 129.37C209.619 130.9 205.641 136.943 205.397 137.426C205.316 137.587 205.316 137.748 205.235 137.829C205.154 137.99 205.073 138.151 205.073 138.232C203.855 141.051 202.313 143.549 200.527 146.046C198.66 148.947 197.117 151.363 196.955 151.766C196.549 153.297 195.169 153.861 193.87 153.941H193.789C193.708 153.941 193.627 153.941 193.545 153.941C193.464 153.941 193.464 153.941 193.383 153.941C193.383 153.941 193.383 153.941 193.302 153.941C193.221 153.941 193.221 153.941 193.139 153.861C193.058 153.861 192.977 153.78 192.977 153.78C192.896 153.78 192.815 153.7 192.734 153.619C192.652 153.539 192.571 153.458 192.49 153.458C192.409 153.378 192.409 153.378 192.328 153.297C192.246 153.216 192.165 153.055 192.084 152.975C192.003 152.894 192.003 152.814 192.003 152.814C191.922 152.652 191.759 152.411 191.678 152.25C191.597 152.089 191.516 151.927 191.516 151.847C190.136 148.785 189.405 145.563 187.701 142.663C186.97 141.454 186.889 139.682 186.402 138.232C186.158 137.587 185.915 137.345 185.671 137.345C185.428 137.345 185.103 137.587 184.697 137.99C183.56 139.118 183.155 140.326 183.56 141.938C184.616 146.127 185.996 156.922 185.915 158.05C186.321 158.936 190.298 186.167 190.379 191.162V191.242C190.866 192.612 191.435 193.981 192.003 195.431C192.003 195.512 192.003 195.512 192.084 195.592C193.139 198.09 194.276 200.587 195.088 203.004C195.25 203.327 197.848 209.852 200.932 217.667C199.552 218.07 197.767 218.714 195.981 219.359C195.575 219.439 195.25 219.6 194.925 219.761C194.519 219.923 194.195 220.003 193.87 220.164V220.084C193.951 219.681 194.032 219.278 194.114 218.875C194.114 218.392 194.357 213.961 194.114 211.947C193.789 209.369 192.896 203.649 192.734 203.165C191.516 199.379 188.594 192.048 188.35 191.564C187.457 189.953 186.321 188.584 185.265 187.133C184.372 186.006 183.56 184.958 182.911 183.83C182.424 183.105 181.693 182.38 180.963 181.977C180.638 182.622 180.232 183.508 180.151 183.991C179.42 187.375 178.609 190.759 177.878 194.062L177.229 197.043C177.391 197.607 177.553 198.654 177.716 200.91C177.878 202.763 178.04 205.421 178.04 207.113C178.04 208.644 177.878 210.094 177.797 211.625C177.716 212.994 177.553 214.444 177.553 215.894C177.553 217.667 177.472 219.52 176.498 221.292C177.878 225.079 180.882 226.851 183.155 227.737L183.642 227.898C185.428 228.543 187.213 229.268 188.999 228.301C189.162 228.22 189.486 227.979 189.811 227.657C190.136 227.657 190.623 227.495 191.029 227.334C191.272 227.173 191.597 227.012 192.084 226.851C192.49 226.69 192.977 226.609 193.464 226.448C194.276 226.287 195.007 226.206 195.412 226.287C196.711 226.448 198.091 226.69 199.309 226.287C200.932 225.723 202.637 225.723 204.261 225.481C204.585 226.368 204.991 227.254 205.316 228.14C201.095 228.301 195.818 228.623 193.058 229.429C192.652 229.59 191.841 229.59 191.435 229.671C190.461 229.832 189.974 230.718 189.974 231.443C190.055 232.49 191.029 231.846 191.516 231.765C192.815 231.604 194.114 232.168 195.25 231.765C198.335 230.557 201.42 231.604 204.504 231.282C204.829 231.282 205.641 231.201 206.534 231.201C207.264 233.054 207.995 234.827 208.563 236.438L208.644 236.599C208.644 236.518 208.563 236.518 208.563 236.438C204.423 234.827 200.202 238.694 200.608 243.527C200.851 246.428 200.932 249.247 201.338 252.148C201.825 255.612 202.881 258.834 206.615 260.365C207.183 260.607 207.67 260.768 208.32 260.929C213.434 262.137 216.275 259.64 216.356 259.559C217.736 263.426 218.873 266.407 219.116 266.246C221.795 264.877 235.352 247.556 236.326 246.105C238.355 242.964 245.986 228.059 246.96 225.079C247.204 224.273 248.259 220.889 248.178 219.6C248.097 218.714 249.314 212.591 249.639 210.336C249.801 209.047 251.506 191.967 251.506 191.887C251.587 190.92 249.964 175.774 250.045 175.049ZM98.6487 96.5806C98.5676 96.5806 98.5676 96.5806 98.6487 96.5806C98.5676 96.5806 98.5676 96.5806 98.6487 96.5806C98.5676 96.5806 98.5676 96.5806 98.6487 96.5806C98.5676 96.5806 98.5676 96.5806 98.6487 96.5806C98.5676 96.5806 98.5676 96.5806 98.6487 96.5806ZM184.129 221.856C181.288 222.098 179.826 220.084 178.365 218.231C178.122 217.908 178.365 217.344 178.527 217.022C179.258 215.733 181.45 217.747 182.18 218.392C183.317 219.439 184.048 219.197 184.372 217.828C184.778 216.297 185.671 215.814 187.132 216.055C187.619 216.136 187.944 216.378 187.863 216.861C187.701 218.633 186.726 221.614 184.129 221.856ZM194.438 224.192C194.032 224.273 193.627 224.353 193.221 224.434C192.734 224.515 192.328 224.595 192.003 224.756C192.49 223.87 192.896 222.903 193.302 222.178C193.708 222.098 194.114 222.017 194.438 221.937C194.844 221.856 195.169 221.775 195.575 221.695C195.737 221.614 195.899 221.614 196.062 221.614C197.28 221.131 199.634 220.486 201.907 219.923C202.231 220.809 202.637 221.695 202.962 222.581C200.04 223.064 196.874 223.709 194.438 224.192Z" fill="#AAAAAA"/>
<path d="M210.755 124.133C210.917 125.342 210.511 125.986 209.537 127.275C209.294 127.597 208.969 128 208.725 128.403C208.563 128.645 208.238 129.128 207.914 129.611C204.017 135.573 203.53 136.379 203.368 136.781C203.368 136.862 203.287 136.943 203.287 137.023L203.205 137.184L203.124 137.265C203.124 137.345 203.043 137.426 202.962 137.507C202.15 139.198 200.689 141.696 198.578 145.079C198.091 145.805 197.685 146.53 197.198 147.174C195.25 150.155 194.925 150.799 194.763 151.363C194.682 151.766 194.276 152.008 193.708 152.088C193.626 151.927 193.383 151.605 193.139 151.041C192.652 149.994 192.246 148.866 191.841 147.657C191.11 145.643 190.379 143.629 189.243 141.615C188.999 141.132 188.756 140.326 188.593 139.601C188.431 138.957 188.269 138.232 188.025 137.507C187.376 135.654 186.158 135.331 185.428 135.331C184.372 135.331 183.56 135.976 183.073 136.54C181.45 138.232 180.882 140.085 181.45 142.26C182.18 145.079 182.992 151.122 183.479 154.828C183.155 154.505 182.911 154.102 182.586 153.619C180.719 150.88 177.959 147.496 173.413 145.482C170.328 144.113 167.568 142.018 165.377 139.359C162.535 135.895 161.724 131.545 161.318 127.678C161.237 127.194 161.155 126.711 161.074 126.228C160.993 125.905 160.912 125.664 160.912 125.422C163.997 125.019 166.675 123.891 169.354 122.764C170.166 122.441 171.059 122.038 171.871 121.716C175.605 120.266 180.476 118.413 185.428 116.399C185.915 116.238 186.402 116.077 186.889 116.077C187.538 116.077 188.269 116.238 189.08 116.56C190.866 117.285 192.652 117.849 194.357 118.413C195.656 118.816 196.955 119.219 198.172 119.702C201.176 120.83 204.504 121.394 208.076 121.394C208.32 121.394 208.482 121.394 208.725 121.394C210.187 121.716 210.674 123.408 210.755 124.133Z" fill="#AAAAAA"/>
<path d="M129.496 126.308C129.415 126.469 129.334 126.631 129.253 126.792C128.928 127.194 128.685 127.597 128.441 128C127.061 130.014 125.762 131.948 123.976 133.559C122.596 134.848 121.46 136.298 120.405 137.748C119.755 138.634 119.106 139.521 118.375 140.246C117.563 141.132 116.833 142.099 116.183 142.985C115.209 144.193 114.316 145.321 113.342 146.368C112.612 147.174 111.637 148.141 110.663 149.108C110.663 148.866 110.663 148.705 110.663 148.544C110.663 148.383 110.663 148.221 110.663 148.06C110.663 147.98 110.663 147.899 110.663 147.738C110.663 144.838 110.501 141.696 109.446 138.232L108.066 133.881L105.874 137.909C104.575 140.326 103.438 142.421 102.302 144.515C102.058 144.999 101.815 145.402 101.571 145.885C100.597 147.819 99.6231 149.672 98.0807 150.961C97.5937 151.363 97.1066 151.524 96.7007 151.524C95.9701 151.524 95.5642 150.88 95.3207 150.397C93.7783 146.771 92.6418 142.985 91.6677 139.359C91.6677 139.198 91.5865 139.037 91.5053 138.876C91.5053 138.796 91.4242 138.715 91.343 138.554C91.343 138.554 91.343 138.473 91.2618 138.473C91.2618 138.393 91.1806 138.312 91.0994 138.232V138.151C91.0994 138.07 91.0183 137.99 91.0183 137.909L90.8559 137.426C90.6124 136.862 90.3688 136.218 90.1253 135.654L90.0441 135.412L89.963 135.09C89.8818 134.767 89.7194 134.445 89.6382 134.042C88.8265 131.384 89.1512 130.256 89.3135 129.934L89.3947 129.692V129.531C89.6382 128.967 91.0183 128 93.4536 126.711C93.9407 126.389 94.3466 126.228 94.6713 126.067C95.8077 125.261 97.1066 124.697 98.4054 124.053C99.7854 123.408 101.247 122.683 102.627 121.716C105.306 119.863 108.228 118.333 111.394 116.641C112.206 116.238 112.774 116.077 113.342 116.077C113.748 116.077 114.073 116.157 114.397 116.399L114.479 116.48L114.641 116.56H114.722L115.209 116.963H115.372C116.265 117.527 117.563 118.413 119.106 119.46C122.678 121.797 127.061 124.778 129.253 126.067C129.334 126.147 129.415 126.147 129.496 126.228V126.308Z" fill="#AAAAAA"/>
<path d="M88.9077 138.312C88.7454 137.99 88.583 137.587 88.4207 137.184C88.5018 137.265 88.5018 137.345 88.5018 137.506C88.583 137.587 88.583 137.748 88.6642 137.829C88.8265 137.99 88.8265 138.151 88.9077 138.312Z" fill="#AAAAAA"/>
<path d="M141.592 214.525L140.943 214.444C137.127 213.961 134.367 216.056 131.932 217.989C131.526 214.847 131.201 212.027 131.201 209.127C131.283 204.374 130.958 199.701 131.283 194.948C131.445 193.015 131.851 191.162 132.013 189.228C132.094 188.181 132.338 187.375 133.15 187.134C133.961 186.892 135.098 187.295 135.666 188.1C138.264 191.887 141.754 194.787 144.433 198.493C144.596 198.735 146.869 202.038 149.547 202.038C152.226 201.957 154.824 201.151 157.503 201.313C159.208 201.393 160.994 200.829 162.698 200.426C166.838 199.54 170.978 197.607 175.362 197.284C175.362 197.284 176.093 204.374 176.011 207.194C176.011 208.644 175.849 210.094 175.768 211.544C175.605 212.994 175.524 214.444 175.524 215.975C175.524 217.747 175.443 219.359 174.55 220.648L174.225 221.051V221.131C172.521 220.809 171.465 219.681 170.572 218.07C169.274 215.814 168.868 213.316 167.812 211.061C167.082 209.611 166.595 207.919 165.539 206.63C164.159 204.777 161.968 203.971 159.695 203.729C158.639 203.649 157.503 203.729 156.448 203.81C154.418 203.971 153.688 205.663 153.2 207.274C152.145 210.497 150.278 213.075 148.005 215.411L147.193 215.331L141.592 214.525Z" fill="#AAAAAA"/>
<path d="M180.881 229.348C180.719 233.054 176.498 235.229 173.413 233.296C173.169 233.135 173.007 232.974 172.764 232.893C170.328 236.116 168.38 236.196 164.402 234.263C163.428 233.779 162.86 232.813 163.266 232.087C163.753 231.282 164.889 231.04 165.863 231.926C166.919 232.974 168.136 232.974 169.435 232.49C170.247 232.168 170.653 231.443 170.653 230.476C170.653 229.751 170.491 229.107 169.76 229.026C168.786 228.865 167.974 228.382 168.218 227.495C168.461 226.367 168.542 225.078 169.841 224.434C171.302 223.709 172.682 223.789 173.9 224.756C175.118 225.723 174.631 227.254 174.306 228.22C173.9 229.509 174.144 230.073 175.118 230.718C177.066 232.007 178.121 230.476 178.04 228.945C177.959 228.22 178.527 227.898 179.177 227.898C179.826 227.898 180.557 228.22 180.8 228.865C180.881 228.945 180.881 229.107 180.881 229.348Z" fill="#AAAAAA"/>
<path d="M208.402 236.521C208.402 236.439 208.32 236.439 208.32 236.357L208.402 236.521Z" fill="#AAAAAA"/>
<path d="M181.612 167.879C181.044 169.893 181.288 171.988 181.45 174.002C181.693 176.741 180.395 178.836 178.69 180.688C176.985 182.622 175.28 184.717 172.52 185.361C167.325 186.65 160.831 187.053 156.853 185.845C155.717 185.522 155.067 185.2 155.148 184.153C155.148 183.428 155.473 182.783 156.447 182.944C159.451 183.266 162.536 184.072 165.458 183.669C169.192 183.186 173.089 182.622 176.092 179.722C178.528 177.385 178.365 175.13 178.365 171.827C174.631 174.163 172.439 171.907 169.679 169.812C169.192 169.49 168.786 169.087 168.299 168.765C166.838 167.718 165.701 166.509 166.107 164.576C166.432 162.723 168.056 161.676 169.76 161.353C172.764 160.789 175.768 159.984 178.852 160.145C179.177 160.145 179.583 160.064 179.908 160.387C181.369 161.837 182.181 165.784 181.612 167.879Z" fill="#AAAAAA"/>
<path d="M152.876 266.729C153.038 269.871 149.71 273.658 145.813 274.463C145.164 274.625 144.595 274.786 143.946 274.947C142.566 275.269 141.754 274.786 141.511 273.336C140.455 268.179 139.562 262.943 137.777 257.948C137.127 256.014 136.965 254 136.721 251.906C140.293 252.953 143.621 254.081 147.031 254.967C149.06 255.531 150.034 257.142 150.765 258.834C151.901 261.332 152.713 263.99 152.876 266.729Z" fill="#AAAAAA"/>
<path d="M145.975 217.022C145.082 220.164 142.89 222.903 140.699 225.562L140.13 226.287C139.562 226.932 138.588 228.462 137.614 229.832C136.802 231.04 134.042 233.779 134.042 233.779C133.393 231.04 132.743 226.448 132.418 223.145C132.337 222.017 132.175 220.97 132.094 220.245C132.256 220.084 132.662 219.842 132.824 219.761C135.179 217.828 137.451 215.975 140.617 216.378L141.267 216.458C142.809 216.619 144.514 216.861 145.975 217.022Z" fill="#AAAAAA"/>
<path d="M152.307 236.438C150.278 237.002 149.466 238.13 147.68 238.532C145.651 239.016 143.784 240.385 141.998 241.433C139.319 242.963 136.315 244.011 134.124 246.347C133.393 247.072 132.094 247.153 131.607 246.266C131.039 245.219 131.688 243.93 132.825 243.447C135.504 242.238 137.858 240.385 140.537 239.177C142.972 238.13 145.245 236.357 148.167 236.357C149.466 236.357 150.197 234.907 151.901 235.229C153.119 235.471 152.957 236.277 152.307 236.438Z" fill="#AAAAAA"/>
<path d="M151.982 232.329C150.602 233.538 148.654 233.538 147.031 234.182C144.271 235.229 141.267 235.713 138.345 236.277C136.883 236.518 136.072 237.969 134.529 238.13C133.555 238.291 132.581 238.613 132.094 237.566C131.769 236.76 132.256 236.357 132.825 236.035C133.068 235.955 133.312 235.793 133.474 235.713C133.718 235.552 134.042 235.391 134.286 235.229C134.529 235.068 135.422 234.827 136.721 234.424C140.455 233.376 147.355 231.604 149.222 231.282C150.197 231.121 151.008 231.04 151.82 231.524C152.226 231.604 152.226 232.087 151.982 232.329Z" fill="#AAAAAA"/>
<path d="M177.635 155.311C176.174 156.6 175.443 155.231 173.089 154.022C172.521 153.7 171.628 154.183 171.384 155.15C171.303 155.633 170.329 156.439 170.248 156.52C169.355 156.761 168.462 157.486 167.65 156.439C166.838 155.392 167.244 154.022 167.894 153.216C170.167 150.316 173.495 149.43 176.985 151.605C177.797 152.008 178.284 154.667 177.635 155.311Z" fill="#AAAAAA"/>
<path d="M144.838 157.406C144.027 158.05 143.134 157.567 142.403 157.003C142.241 156.842 142.16 156.681 142.078 156.52C139.724 154.425 139.075 154.505 137.045 157.003C136.721 157.325 136.477 157.809 135.99 157.567C135.178 157.083 134.854 156.117 135.016 155.311C135.178 153.619 138.669 151.041 141.104 151.122C142.809 151.041 144.189 152.814 145.569 154.344C146.543 155.311 145.813 156.6 144.838 157.406Z" fill="#AAAAAA"/>
<path d="M150.603 241.03C148.005 243.447 145.407 245.864 142.647 248.039C141.348 249.006 140.049 250.295 137.695 250.214C137.208 250.133 136.559 249.65 137.127 248.603C137.614 247.636 138.507 247.153 139.481 246.589C141.186 245.541 143.134 245.058 144.514 243.286C145.813 241.674 147.842 240.708 149.71 239.66C151.252 238.935 151.658 240.224 150.603 241.03Z" fill="#AAAAAA"/>
<path d="M155.392 228.059C153.687 228.382 150.764 226.851 150.034 225.24C149.628 224.354 149.871 223.709 150.44 223.306C151.008 222.903 151.657 223.387 152.063 223.87C153.037 225.079 154.174 225.643 155.716 224.756C156.528 224.273 157.015 223.79 157.015 222.903C157.015 221.856 157.096 220.648 158.395 220.728C159.775 220.809 159.938 222.178 160.1 223.306C160.425 224.837 157.177 227.737 155.392 228.059Z" fill="#AAAAAA"/>
</svg>
